# xmcd
#
# Track frame offsets:
# 150
# 24252
# 46985
# 68327
# 86130
# 107287
# 124647
# 142937
# 162642
# 188350
#
# Disc length: 2756 seconds
#
# Revision: 0
# Processed by: cddbd v1.4PL0 Copyright (c) Steve Scherf et al.
# Submitted via: Audion 3.0.2 (http://www.panic.com/audion/)
#
DISCID=700ac20a
DTITLE=Kazuhiko Kato - BOLERO CALIFORNIA
DYEAR=1900
DGENRE=
TTITLE0=jasuto a sinfonii
TTITLE1=sanji ni wisukii
TTITLE2=marakeshu heno hikou
TTITLE3=janguu janguru
TTITLE4=horoyoi batahurai
TTITLE5=piano baa
TTITLE6=magunoria kan
TTITLE7=siba no joou
TTITLE8=ai no piero
TTITLE9=yuri no jidai
EXTD=
EXTT0=
EXTT1=
EXTT2=
EXTT3=
EXTT4=
EXTT5=
EXTT6=
EXTT7=
EXTT8=
EXTT9=
PLAYORDER=
